<svg 
17:             width="1440" 
18:             height="860" 
19:             viewBox="0 0 1440 860" 
20:             fill="none" 
21:             xmlns="http://www.w3.org/2000/svg"
22:             className="offers-master-svg"
23:           >
24:             {/* Background Wavy Line */}
25:             <path 
26:               d="M-30.3149 289.01L-31.1312 288.432L-32.2865 290.065L-31.4702 290.642L-30.8926 289.826L-30.3149 289.01ZM692.17 347.602L692.239 348.6L692.17 347.602ZM1108.32 305.976L1108.69 305.046V305.046L1108.32 305.976ZM1332.95 330.45L1332.42 331.298L1332.95 330.45ZM1108.32 622.52L1108.11 623.498L1108.32 622.52ZM306.058 679.314L305.772 678.356L306.058 679.314ZM103.468 720.949L104.043 721.767L103.468 720.949ZM734.785 1016.98C735.281 1017.22 735.88 1017.02 736.123 1016.52L740.083 1008.44C740.326 1007.94 740.121 1007.35 739.625 1007.1C739.129 1006.86 738.53 1007.06 738.287 1007.56L734.767 1014.74L727.583 1011.22C727.087 1010.98 726.488 1011.19 726.245 1011.68C726.002 1012.18 726.207 1012.78 726.703 1013.02L734.785 1016.98ZM-30.8926 289.826L-31.4702 290.642C104.502 386.867 246.957 330.082 306.421 306.907L306.058 305.976L305.695 305.044C246.168 328.243 104.7 384.557 -30.3149 289.01L-30.8926 289.826ZM306.058 305.976L306.421 306.907C313.696 304.072 323.92 302.638 336.476 302.332C349.014 302.026 363.798 302.845 380.147 304.465C412.847 307.705 451.723 314.141 491.273 321.136C530.807 328.128 571.018 335.681 606.329 341.14C641.618 346.595 672.128 349.98 692.239 348.6L692.17 347.602L692.102 346.604C672.243 347.967 641.941 344.622 606.635 339.164C571.352 333.709 531.186 326.165 491.621 319.166C452.072 312.171 413.128 305.723 380.344 302.474C363.952 300.85 349.079 300.024 336.427 300.333C323.793 300.641 313.294 302.082 305.695 305.044L306.058 305.976ZM692.17 347.602L692.239 348.6C715.627 346.995 744.872 340.209 777.629 331.809C810.419 323.401 846.757 313.366 884.44 305.207C959.829 288.884 1040.33 280.14 1107.95 306.906L1108.32 305.976L1108.69 305.046C1040.47 278.045 959.458 286.918 884.017 303.252C846.284 311.422 809.876 321.475 777.132 329.872C744.356 338.277 715.28 345.014 692.102 346.604L692.17 347.602ZM1108.32 305.976L1107.95 306.906C1177.69 334.505 1217.05 329.995 1247.5 323.886C1262.72 320.83 1275.49 317.437 1288.74 317.425C1301.92 317.414 1315.58 320.757 1332.42 331.298L1332.95 330.45L1333.49 329.602C1316.35 318.881 1302.33 315.413 1288.74 315.425C1275.23 315.438 1262.16 318.903 1247.1 321.925C1216.98 327.969 1178.01 332.484 1108.69 305.046L1108.32 305.976ZM1332.95 330.45L1332.42 331.298C1356.98 346.662 1367.72 374.95 1366.8 408.345C1365.89 441.738 1353.31 480.078 1331.44 515.201C1287.67 585.46 1206.93 642.515 1108.53 621.542L1108.32 622.52L1108.11 623.498C1207.61 644.705 1289.1 586.962 1333.14 516.258C1355.16 480.9 1367.88 442.218 1368.8 408.4C1369.73 374.585 1358.85 345.474 1333.49 329.602L1332.95 330.45ZM1108.32 622.52L1108.53 621.542C1013.47 601.281 941.574 606.849 880.292 617.966C849.679 623.519 821.679 630.465 794.848 636.245C767.992 642.031 742.266 646.659 716.067 647.621L716.104 648.621L716.14 649.62C742.518 648.651 768.382 643.993 795.269 638.201C822.181 632.403 850.076 625.48 880.649 619.934C941.737 608.852 1013.37 603.303 1108.11 623.498L1108.32 622.52ZM716.104 648.621L716.067 647.621C689.832 648.586 671.871 647.197 657.422 644.645C642.963 642.09 632.002 638.368 619.686 634.614C595.004 627.089 565.307 619.585 492.565 621.52L492.592 622.52L492.618 623.519C565.156 621.59 594.637 629.068 619.103 636.527C631.361 640.264 642.465 644.033 657.074 646.614C671.692 649.197 689.798 650.588 716.14 649.62L716.104 648.621ZM492.592 622.52L492.565 621.52C419.848 623.454 386.444 633.663 364.48 645.48C353.54 651.367 345.424 657.669 336.841 663.396C328.241 669.135 319.051 674.39 305.772 678.356L306.058 679.314L306.344 680.272C319.876 676.231 329.249 670.867 337.951 665.06C346.671 659.241 354.598 653.069 365.428 647.242C387.005 635.632 420.057 625.449 492.618 623.519L492.592 622.52ZM306.058 679.314L305.772 678.356C252.244 694.341 220.581 691.521 192.756 691.302C178.823 691.193 165.812 691.736 151.544 695.652C137.274 699.569 121.801 706.844 102.893 720.131L103.468 720.949L104.043 721.767C122.808 708.581 138.073 701.423 152.073 697.581C166.075 693.737 178.868 693.193 192.74 693.302C220.527 693.52 252.485 696.356 306.344 680.272L306.058 679.314ZM103.468 720.949L102.893 720.131C72.7664 741.301 65.2197 783.046 81.7547 824.128C98.3067 865.253 139.002 905.881 205.674 925.278L205.953 924.318L206.233 923.358C140.078 904.111 99.9063 863.871 83.61 823.382C67.2966 782.849 74.9204 742.232 104.043 721.767L103.468 720.949ZM205.953 924.318L205.674 925.278C239.073 934.995 285.12 934.433 336.199 930.961C387.365 927.484 443.572 921.089 497.618 919.036C551.645 916.983 603.302 919.283 645.22 933.141C687.09 946.983 719.19 972.331 734.279 1016.41L735.225 1016.08L736.171 1015.76C720.834 970.96 688.166 945.232 645.847 931.242C603.577 917.268 551.623 914.982 497.542 917.037C443.48 919.091 387.08 925.499 336.063 928.966C284.959 932.439 239.247 932.963 206.233 923.358L205.953 924.318Z" 
27:               fill="#F5F0EA" 
28:               fillOpacity="0.4" 
29:             />
30: 
31:             {/* Drop Shadow Filters */}
32:             <defs>
33:               <filter id="badgeShadow" x="0" y="0" width="120%" height="120%" filterUnits="userSpaceOnUse">
34:                 <feDropShadow dx="0" dy="4" stdDeviation="6" floodColor="#000000" floodOpacity="0.25"/>
35:               </filter>
36:             </defs>
37: 
38:             {/* NODE 01 (Top-Left, x: 420, y: 301) - Tell Us */}
39:             <g className="node-group node-01">
40:               <circle cx="391" cy="244" r="14" fill="#F5F0EA" />
41:               <text x="391" y="248" fill="#031633" fontSize="12" fontWeight="700" textAnchor="middle">01</text>
42:               <circle cx="420" cy="301" r="43" fill="#BD5B3B" stroke="#D0C6B6" strokeWidth="2" filter="url(#badgeShadow)" />
43:               {/* Snake / S Icon */}
44:               <g transform="translate(0, 0)">
45:                 <path d="M393.118 316.152C393.118 316.149 393.117 316.146 393.117 316.144C393.11 316.101 393.104 316.058 393.099 316.013C393.066 313.098 395.183 311.32 396.128 310.294C396.172 310.249 396.216 310.205 396.259 310.162C396.356 310.061 396.453 309.967 396.548 309.881C396.588 309.845 396.627 309.811 396.667 309.776C397.184 309.338 397.716 309.023 398.298 308.777C399.689 308.2 401.429 307.988 403.999 308.483C404.754 308.578 405.476 308.709 406.18 308.858C409.061 309.476 411.74 310.408 414.215 311.101C414.226 311.104 414.237 311.107 414.248 311.11C416.306 311.693 418.837 311.542 421.568 311.3C421.583 311.299 421.597 311.298 421.611 311.297C422.52 311.246 423.935 310.744 425.208 310.098C425.278 310.058 425.349 310.017 425.421 309.976C426.542 309.328 427.856 308.381 428.699 307.608C428.725 307.584 428.751 307.562 428.777 307.541C428.715 307.649 428.714 307.871 428.772 307.862C428.805 307.864 428.838 307.798 428.847 307.696C428.85 307.664 428.852 307.629 428.853 307.591C428.864 307.355 428.805 307.305 428.692 307.115C428.68 307.096 428.667 307.078 428.653 307.059C428.377 306.712 428.095 306.44 427.815 306.208C424.596 303.946 419.62 304.283 414.871 304.625C414.861 304.626 414.851 304.626 414.841 304.627C413.926 304.672 413.008 304.7 412.086 304.704C410.244 304.708 408.389 304.636 406.496 304.346C405.095 304.117 403.662 303.808 402.206 303.029C402.159 303.003 402.111 302.976 402.064 302.949C401.651 302.71 401.304 302.403 401.03 302.091C400.607 301.639 400.328 301.181 400.108 300.834C400.081 300.791 400.056 300.75 400.032 300.712C399.697 300.232 399.313 299.11 399.538 298.219C399.569 298.06 399.61 297.912 399.654 297.776C399.685 297.679 399.718 297.589 399.753 297.501C400.416 296.013 401.18 295.312 401.923 294.671C401.926 294.668 401.929 294.666 401.932 294.663C401.993 294.614 402.055 294.565 402.118 294.517C404.972 292.792 407.133 293.095 408.963 292.896C409.264 292.881 409.545 292.87 409.803 292.861C411.243 292.729 412.669 292.641 414.089 292.57C414.185 292.587 414.281 292.605 414.38 292.623C415.357 292.808 416.507 292.827 418.126 292.821C418.231 292.82 418.338 292.82 418.448 292.82C418.753 292.82 419.072 292.821 419.408 292.824C420.421 292.833 421.593 292.866 422.979 292.942C423.872 292.993 424.332 293.106 424.707 293.195C424.819 293.221 424.923 293.245 425.026 293.266C425.387 293.337 425.768 293.296 426.221 293.256C426.773 293.211 427.407 293.148 428.315 293.319C428.384 293.332 428.462 293.349 428.537 293.367C428.636 293.391 428.736 293.417 428.841 293.448C428.803 293.477 428.741 293.348 428.242 293.613C428.011 293.755 427.856 294.061 427.839 294.195C427.807 294.36 427.825 294.403 427.83 294.445C427.864 294.548 427.846 294.406 427.815 294.314C427.748 294.102 427.636 293.861 427.528 293.645C427.305 293.204 427.079 292.829 426.872 292.503C426.456 291.851 426.111 291.401 425.819 290.995C425.643 290.749 425.486 290.522 425.342 290.267C425.168 289.956 424.988 289.574 424.844 289.102C424.821 289.026 424.799 288.948 424.778 288.87C424.613 288.263 424.495 287.645 424.417 287.123C424.302 286.373 423.91 284.933 423.564 283.887C423.433 283.491 423.305 282.949 423.148 282.339C423.146 282.328 423.143 282.318 423.14 282.308C423.124 282.241 423.108 282.174 423.094 282.105C422.905 281.223 422.958 280.168 423.231 279.192C423.549 278.063 424.004 277.309 424.387 276.714C424.466 276.602 424.554 276.498 424.649 276.404C425.535 275.609 426.195 275.689 426.602 275.644C427.026 275.634 427.327 275.672 427.597 275.708C427.646 275.715 427.696 275.723 427.744 275.732C427.914 275.761 428.073 275.797 428.228 275.838C428.614 275.942 428.967 276.078 429.316 276.26C429.825 276.526 430.4 276.945 430.855 277.585C430.874 277.611 430.892 277.637 430.91 277.663C431.245 278.133 431.562 278.674 431.819 279.26C432.449 280.651 432.601 282.239 432.582 283.311C432.479 284.674 432.17 285.859 431.991 286.858C431.988 286.881 431.975 286.953 431.97 286.976C431.963 287.007 431.955 287.038 431.948 287.068C431.666 288.24 431.348 289.411 430.986 290.57C430.765 291.276 430.478 291.943 430.158 292.512L430.174 292.462C430.169 292.469 430.165 292.476 430.161 292.484C429.986 292.766 429.827 293.016 429.651 293.31C429.214 294.038 428.77 294.499 428.338 294.462C427.911 294.424 427.516 293.937 427.291 292.999C427.203 292.634 427.163 292.145 427.217 291.647C427.218 291.636 427.219 291.626 427.22 291.616C427.222 291.608 427.23 291.583 427.232 291.575C427.295 290.953 427.414 290.287 427.578 289.617C427.847 288.52 428.077 287.411 428.281 286.292C428.286 286.262 428.292 286.233 428.297 286.204L428.279 286.304C428.447 284.995 428.665 283.884 428.661 282.898C428.666 281.695 428.366 280.728 427.716 279.788C427.705 279.772 427.694 279.756 427.683 279.74C427.624 279.646 427.343 279.428 426.991 279.365C426.977 279.362 426.964 279.36 426.95 279.358C426.786 279.329 426.639 279.323 426.611 279.328C426.568 279.317 426.763 279.4 427.194 279.024C427.247 278.972 427.298 278.914 427.342 278.853C427.287 278.929 427.234 279.004 427.183 279.08C426.569 279.977 426.272 280.804 426.365 281.491C426.368 281.517 426.372 281.544 426.376 281.57C426.509 282.26 426.597 282.932 426.676 283.592C426.702 283.805 426.726 284.017 426.75 284.228C427.005 285.668 427.257 287.06 427.593 288.027C427.614 288.09 427.636 288.152 427.657 288.211C427.684 288.284 427.717 288.366 427.751 288.445C428.067 289.154 428.408 289.796 428.677 290.325C428.869 290.694 429.048 291.025 429.258 291.351C429.371 291.527 429.53 291.767 429.724 292.072C429.883 292.325 430.066 292.609 430.275 293.007C430.38 293.224 430.494 293.403 430.618 293.891C430.647 294.026 430.679 294.174 430.677 294.441C430.665 294.673 430.655 295.142 430.213 295.678C429.774 296.198 429.153 296.329 428.884 296.345C428.53 296.365 428.417 296.335 428.234 296.303C428.19 296.299 428.087 296.288 427.975 296.281C427.083 296.224 425.854 296.268 424.744 296.274C423.799 296.28 422.695 296.261 421.636 296.223C420.412 296.181 419.254 296.11 418.474 296.105C418.359 296.105 418.252 296.106 418.155 296.109C418.097 296.111 418.042 296.113 417.99 296.117C416.743 296.202 415.312 296.167 414.053 296.152C412.853 296.137 411.805 296.141 411.219 296.257C410.519 296.397 409.917 296.395 409.033 296.414C408.422 296.43 407.662 296.452 406.688 296.592C405.569 296.756 404.817 296.908 404.355 297.072C404.242 297.112 404.149 297.153 404.087 297.183C404.04 297.211 403.994 297.24 403.949 297.27C403.467 297.588 403.011 298 402.749 298.555C402.707 298.647 402.676 298.735 402.661 298.801C402.655 298.826 402.651 298.848 402.649 298.867C402.64 298.967 402.679 298.942 402.696 298.93C402.714 298.918 402.753 298.992 402.85 299.136C402.877 299.179 402.903 299.222 402.928 299.261C403.165 299.653 403.333 299.889 403.459 300.039C403.527 300.121 403.594 300.179 403.659 300.217C403.687 300.234 403.715 300.25 403.743 300.266C403.909 300.358 404.091 300.445 404.291 300.528C404.863 300.768 405.549 300.962 406.186 301.152C406.714 301.31 407.158 301.483 407.558 301.629C407.684 301.674 407.805 301.716 407.923 301.754C408.377 301.813 408.835 301.859 409.296 301.895C409.372 301.886 409.451 301.875 409.534 301.864C409.951 301.809 410.461 301.735 411.09 301.707C412.086 301.661 412.961 301.716 413.892 301.747C414.153 301.756 414.419 301.762 414.689 301.764C414.698 301.764 414.707 301.764 414.716 301.764C415.178 301.766 415.688 301.745 416.244 301.702C416.849 301.654 417.546 301.578 418.244 301.518C419.283 301.427 420.322 301.381 421.051 301.443C421.324 301.465 421.556 301.53 421.786 301.597C421.787 301.597 421.788 301.598 421.789 301.598C421.804 301.603 421.82 301.607 421.835 301.612C423.606 301.69 425.423 301.92 427.209 302.577C427.367 302.626 427.525 302.679 427.683 302.736C428.451 303.01 429.179 303.393 429.662 303.655C429.978 303.823 430.552 304.222 431.138 304.848C431.19 304.905 431.242 304.963 431.294 305.025C431.708 305.509 432.067 306.254 432.16 307.029C432.186 307.224 432.198 307.418 432.2 307.603C432.201 307.655 432.202 307.71 432.202 307.769C432.232 308.23 432.214 309.358 431.574 310.094C431.547 310.134 431.518 310.172 431.489 310.21C431.328 310.416 431.175 310.604 431.028 310.782C430.723 311.151 430.372 311.424 430.006 311.69C429.663 311.939 429.309 312.179 428.956 312.489C428.779 312.645 428.595 312.823 428.394 313.012C428.218 313.177 428.028 313.35 427.819 313.519C427.625 313.676 427.158 313.974 426.52 314.312C426.125 314.521 425.665 314.744 425.159 314.958C424.282 315.399 423.327 315.791 422.157 315.961C422.142 315.963 422.128 315.965 422.113 315.967C421.72 316.025 421.323 316.081 420.921 316.135C420.659 316.218 420.431 316.313 420.253 316.422C420.125 316.501 420.016 316.59 419.905 316.681C419.752 316.804 419.592 316.932 419.363 317.039C419.184 317.124 418.966 317.166 418.815 317.145C418.746 317.135 418.691 317.112 418.641 317.092C418.584 317.068 418.534 317.046 418.473 317.05C418.43 317.053 418.385 317.074 418.33 317.099C418.242 317.139 418.126 317.191 417.946 317.198C417.277 317.224 416.495 317.205 415.709 317.134C414.836 317.057 413.962 316.907 413.263 316.765C413.135 316.739 412.999 316.708 412.855 316.67C412.838 316.665 412.82 316.661 412.802 316.656C412.175 316.486 411.446 316.223 410.733 315.963C410.123 315.741 409.522 315.52 409.008 315.358C408.503 315.198 407.964 315.093 407.449 315.001C406.829 314.89 406.242 314.796 405.771 314.629C405.676 314.595 405.57 314.493 405.438 314.367C405.345 314.277 405.237 314.175 405.109 314.076C404.491 313.955 403.883 313.851 403.296 313.778C403.274 313.787 403.252 313.795 403.229 313.803C403.229 313.804 403.228 313.804 403.228 313.804C402.721 314 402.058 314.283 401.379 314.142C401.208 314.107 401.101 314.029 401.005 313.959C400.912 313.89 400.821 313.833 400.731 313.842C400.624 313.853 400.543 313.942 400.522 314.02C400.495 314.105 400.555 314.158 400.584 314.119C400.552 314.154 400.518 314.187 400.483 314.219C400.446 314.252 400.408 314.285 400.368 314.315C400.347 314.332 400.323 314.35 400.299 314.369C400.072 314.547 399.759 314.817 399.413 315.032C398.992 315.615 398.799 316.23 398.797 316.239C398.794 316.276 398.791 316.312 398.788 316.348C398.752 316.783 398.727 317.191 398.726 317.54C398.724 317.816 398.744 318.058 398.761 318.18C398.773 318.313 398.789 318.249 398.565 318.065C398.585 318.086 398.606 318.105 398.626 318.125C399.546 319.033 400.697 319.702 402.08 320.306C403.069 320.74 404.026 321.289 404.696 321.901C405.366 322.512 405.693 323.135 405.562 323.669C405.427 324.199 404.843 324.605 403.907 324.777C402.972 324.947 401.757 324.862 400.527 324.468C398.859 323.937 396.994 323.138 395.421 321.867C395.389 321.841 395.357 321.816 395.325 321.79C394.721 321.281 394.366 320.684 394.144 320.189C394.052 319.999 393.977 319.814 393.914 319.64C393.482 318.361 393.369 317.522 393.21 316.698C393.177 316.512 393.146 316.33 393.118 316.152Z
46: " fill="#F5F0EA" />
47:               </g>
48:             </g>
49: 
50:             {/* NODE 02 (Top-Right, x: 1020, y: 301) - Understand */}
51:             <g className="node-group node-02">
52:               <circle cx="991" cy="244" r="14" fill="#F5F0EA" />
53:               <text x="991" y="248" fill="#031633" fontSize="12" fontWeight="700" textAnchor="middle">02</text>
54:               <circle cx="1020" cy="301" r="43" fill="#BD5B3B" stroke="#D0C6B6" strokeWidth="2" filter="url(#badgeShadow)" />
55:               {/* Speech Bubble Icon */}
56:               <g transform="translate(0, 0)">
57:                 <path d="M1023.51 313.332C1023.05 313.379 1021.13 313.326 1019.99 313.232C1019.97 313.231 1019.95 313.229 1019.93 313.227C1019.66 313.205 1019.4 313.188 1019.1 313.161C1018.82 313.136 1018.49 313.103 1018.08 313.038C1018.06 313.036 1018.05 313.033 1018.03 313.03C1017.41 312.929 1016.6 312.77 1015.47 312.462C1014.91 312.352 1014.36 312.232 1013.82 312.102C1011.39 311.522 1009.04 310.791 1006.76 309.89C1006.75 309.886 1006.74 309.881 1006.73 309.877C1004.03 308.746 1001.88 307.454 999.695 305.936C999.669 305.917 999.643 305.899 999.617 305.881C998.414 305.075 997.617 303.771 997.274 302.65C997.238 302.552 997.204 302.452 997.171 302.352C997.043 301.953 996.946 301.547 996.875 301.159C996.868 301.117 996.861 301.076 996.854 301.036C996.548 299.36 996.893 297.663 997.288 296.68C997.949 295.041 998.608 294.173 999.126 293.455C1000.67 291.146 1002.46 289.246 1004.24 287.374C1004.28 287.334 1004.32 287.294 1004.36 287.254C1006.18 285.445 1008.25 284.768 1010.24 284.115C1011.68 283.673 1013.13 283.341 1014.59 283.074C1014.87 283.023 1015.15 282.975 1015.43 282.93C1015.5 282.92 1015.56 282.91 1015.62 282.901C1016.77 282.729 1017.83 282.761 1018.87 282.824C1019.68 282.841 1020.44 282.88 1021.14 282.929C1022.12 282.997 1022.99 283.086 1023.69 283.193C1025.39 283.449 1027.28 283.92 1028.67 284.285C1028.89 284.344 1029.11 284.401 1029.31 284.453C1029.45 284.482 1029.59 284.511 1029.74 284.54C1029.83 284.559 1029.93 284.578 1030.02 284.598C1031 284.801 1031.97 285.118 1032.88 285.532C1032.95 285.583 1033.02 285.636 1033.09 285.69C1033.95 286.368 1035.06 287.041 1036.57 288.302C1037.22 288.848 1037.94 289.505 1038.74 290.273C1038.89 290.421 1039.02 290.551 1039.12 290.668C1039.2 290.754 1039.26 290.832 1039.32 290.905C1039.48 291.091 1039.58 291.248 1039.67 291.39C1039.73 291.477 1039.78 291.559 1039.83 291.64C1040.01 291.917 1040.27 292.141 1040.56 292.431C1040.94 292.804 1041.38 293.301 1041.64 294.089C1042.13 295.579 1042.33 296.527 1042.57 297.213C1042.62 297.334 1042.66 297.448 1042.7 297.554C1042.83 297.962 1042.9 298.311 1042.95 298.624C1042.99 298.933 1043.01 299.211 1042.99 299.484C1042.94 300.385 1042.47 301.424 1042.06 302.091C1041.84 302.468 1041.56 303.132 1041.35 303.753C1041.31 303.853 1041.28 303.952 1041.25 304.049C1041.18 304.27 1041.1 304.482 1041.01 304.681C1040.84 305.084 1040.5 305.587 1040.05 306.074C1039.59 306.581 1039.01 307.064 1038.43 307.538C1037.73 308.104 1037.21 308.481 1036.81 308.798C1036.71 308.869 1036.63 308.936 1036.55 309.001C1036.06 309.367 1035.61 309.592 1035.21 309.756C1034.93 309.867 1034.67 309.95 1034.42 310.018C1034.07 310.115 1033.68 310.185 1033.33 310.238C1033 310.284 1032.6 310.355 1032.7 310.354C1032.73 310.346 1032.82 310.328 1032.99 310.224C1033 310.22 1033 310.215 1033.01 310.21C1033.42 309.924 1033.47 309.621 1033.48 309.628C1033.5 309.61 1033.49 309.725 1033.51 309.856C1033.53 310.132 1033.6 310.497 1033.68 310.813C1033.84 312.391 1034.32 314.124 1034.06 316.408L1034.07 316.294C1034.07 316.301 1034.07 316.307 1034.07 316.313C1034.05 316.468 1034.04 316.626 1034.03 316.788C1033.94 317.584 1033.91 318.255 1033.34 319.367C1033.26 319.567 1032.96 319.96 1032.79 320.082C1032.78 320.088 1032.77 320.094 1032.76 320.099C1032.3 320.374 1031.85 320.354 1031.62 320.301C1031.37 320.244 1031.24 320.157 1031.13 320.075C1030.61 319.625 1030.62 319.217 1030.55 318.935C1030.5 318.649 1030.49 318.491 1030.55 318.402C1030.61 318.314 1030.75 318.281 1031 318.217C1031.22 318.149 1031.64 318.08 1031.83 317.901C1031.86 317.866 1031.86 317.821 1031.79 317.779C1031.73 317.74 1031.51 317.702 1031.25 317.844C1031.24 317.847 1031.24 317.849 1031.23 317.852L1030.79 318.422C1030.64 318.229 1030.56 317.393 1030.57 316.627C1030.57 316.459 1030.58 316.289 1030.58 316.116C1030.58 316.109 1030.58 316.103 1030.58 316.096C1030.58 316.077 1030.59 316.019 1030.59 316C1030.67 314.724 1030.19 313.033 1029.87 311.167C1029.8 310.723 1029.73 310.261 1029.73 309.678C1029.73 309.385 1029.74 309.052 1029.86 308.616C1029.97 308.201 1030.25 307.546 1030.92 307.103C1031.2 306.913 1031.44 306.832 1031.62 306.773C1032.28 306.591 1032.56 306.605 1032.86 306.566C1033.15 306.537 1033.38 306.51 1033.58 306.47C1033.99 306.392 1034.29 306.278 1034.55 306.1C1034.64 306.033 1034.74 305.966 1034.84 305.901C1034.97 305.808 1035.11 305.717 1035.24 305.628C1036.63 304.704 1037.74 303.883 1038.17 302.972C1038.2 302.917 1038.22 302.861 1038.25 302.803C1038.28 302.731 1038.31 302.659 1038.34 302.589C1038.36 302.549 1038.37 302.509 1038.38 302.469C1038.88 301.112 1039.3 299.98 1039.43 299.317C1039.54 298.754 1039.58 298.498 1039.6 298.302C1039.6 298.286 1039.6 298.27 1039.6 298.254C1039.59 298.143 1039.57 298.036 1039.56 297.932C1039.53 297.779 1039.5 297.634 1039.47 297.491C1039.43 297.345 1039.37 297.148 1039.29 296.918C1038.99 295.962 1038.37 294.528 1037.52 293.504C1037.43 293.394 1037.34 293.283 1037.24 293.169C1037.16 293.092 1037.09 293.013 1037.02 292.934C1036.65 292.532 1036.28 292.109 1035.92 291.708C1035.13 290.808 1034.38 290.04 1033.93 289.747C1033.15 289.225 1032.3 288.625 1031.49 288.201C1030.73 287.792 1030.01 287.539 1029.57 287.504C1029.5 287.498 1029.43 287.49 1029.36 287.482C1029.26 287.469 1029.17 287.453 1029.08 287.436C1028.7 287.365 1028.33 287.252 1027.85 287.111C1027.36 286.968 1026.76 286.794 1025.94 286.607C1024.99 286.39 1024.33 286.204 1023.76 286.049C1022.97 285.832 1022.37 285.673 1021.45 285.63C1020.43 285.583 1019.38 285.529 1018.58 285.441C1018.22 285.401 1017.8 285.385 1017.38 285.389C1016.91 285.393 1016.43 285.424 1016.01 285.466C1015.96 285.472 1015.9 285.478 1015.84 285.484C1015.81 285.487 1015.78 285.49 1015.75 285.493C1015.28 285.537 1014.88 285.528 1014.53 285.524C1014.42 285.523 1014.32 285.522 1014.22 285.524C1013.85 285.601 1013.49 285.684 1013.12 285.775C1013.07 285.801 1013.01 285.83 1012.95 285.861C1012.64 286.014 1012.27 286.205 1011.8 286.389C1011.06 286.681 1010.4 286.859 1009.71 287.08C1009.18 287.254 1008.64 287.454 1008.08 287.779C1007.7 287.999 1007.31 288.291 1006.98 288.6C1006.78 288.788 1006.6 288.98 1006.46 289.16C1006.43 289.202 1006.4 289.243 1006.36 289.284C1006.12 289.581 1005.89 289.851 1005.7 290.055C1005.55 290.204 1005.4 290.304 1005.25 290.402C1005.25 290.403 1005.25 290.403 1005.25 290.404C1005.24 290.41 1005.23 290.417 1005.22 290.424C1004.39 291.47 1003.63 292.55 1002.96 293.657C1002.91 293.757 1002.86 293.862 1002.81 293.963C1002.58 294.46 1002.38 294.944 1002.3 295.286C1002.22 295.654 1001.87 296.485 1001.66 297.328C1001.52 297.878 1001.45 298.427 1001.47 298.84C1001.48 299.082 1001.41 299.288 1001.35 299.509C1001.3 299.713 1001.25 299.929 1001.31 300.149C1001.32 300.179 1001.33 300.21 1001.34 300.241C1001.35 300.267 1001.36 300.292 1001.36 300.318C1001.39 300.393 1001.42 300.468 1001.46 300.541C1001.51 300.661 1001.57 300.777 1001.63 300.889C1001.68 300.993 1001.73 301.235 1001.81 301.459C1001.86 301.598 1001.92 301.728 1002 301.841C1002.06 301.885 1002.12 301.922 1002.19 301.955C1002.21 301.97 1002.24 301.985 1002.26 302C1002.91 302.385 1003.56 302.768 1004.21 303.145C1004.41 303.204 1004.6 303.235 1004.77 303.228C1004.88 303.223 1005 303.199 1005.11 303.174C1005.27 303.14 1005.43 303.106 1005.61 303.115C1005.76 303.122 1005.9 303.178 1005.98 303.257C1006.01 303.294 1006.03 303.336 1006.05 303.374C1006.07 303.417 1006.08 303.455 1006.12 303.476C1006.15 303.491 1006.18 303.491 1006.23 303.491C1006.3 303.491 1006.39 303.49 1006.49 303.551C1006.88 303.776 1007.31 304.045 1007.72 304.288C1008.1 304.513 1008.47 304.716 1008.77 304.846C1008.78 304.85 1008.79 304.855 1008.8 304.859C1008.86 304.887 1008.92 304.913 1008.98 304.937C1009.44 305.126 1010.07 305.474 1010.7 305.811C1011.14 306.047 1011.59 306.277 1011.98 306.451C1012.36 306.622 1012.78 306.746 1013.18 306.862C1013.66 307.001 1014.13 307.128 1014.5 307.312C1014.58 307.349 1014.65 307.444 1014.75 307.563C1014.83 307.647 1014.91 307.742 1015.01 307.837C1015.5 307.996 1016 308.147 1016.5 308.286C1016.52 308.282 1016.54 308.278 1016.56 308.275C1016.56 308.275 1016.56 308.274 1016.56 308.274C1017.02 308.188 1017.62 308.073 1018.36 308.378C1018.51 308.439 1018.61 308.511 1018.7 308.581C1018.71 308.591 1018.72 308.601 1018.74 308.612C1018.74 308.619 1018.75 308.626 1018.76 308.633C1018.85 308.714 1018.94 308.787 1019.08 308.818C1019.23 308.853 1019.42 308.835 1019.64 308.811C1019.93 308.777 1020.27 308.732 1020.61 308.813C1020.64 308.818 1020.66 308.824 1020.69 308.83C1020.94 308.888 1021.32 308.967 1021.71 309.114C1022.89 309.269 1024.16 308.976 1026.05 310.219C1026.17 310.317 1026.3 310.426 1026.41 310.544C1026.43 310.562 1026.44 310.58 1026.46 310.598C1027.46 311.833 1027.52 312.551 1027.91 313.042C1027.92 313.055 1027.92 313.068 1027.93 313.081C1028.49 313.854 1029.03 314.631 1029.57 315.41C1030.11 316.193 1030.5 317.026 1030.67 317.726C1030.84 318.426 1030.78 318.935 1030.49 319.185C1030.19 319.436 1029.65 319.359 1029.01 318.994C1028.36 318.628 1027.68 318.013 1027.08 317.291C1026.48 316.572 1025.89 315.86 1025.28 315.151C1025.27 315.139 1025.26 315.127 1025.25 315.115C1024.74 314.502 1024.38 313.816 1024.13 313.418C1024.09 313.366 1024.05 313.32 1024.02 313.28C1023.93 313.167 1023.85 313.123 1023.82 313.133C1023.81 313.134 1023.81 313.135 1023.81 313.135C1023.82 313.226 1023.81 313.273 1023.69 313.301C1023.64 313.312 1023.58 313.322 1023.51 313.332Z
58: " fill="#F5F0EA" />
59:               </g>
60:             </g>
61: 
62:             {/* NODE 03 (Bottom-Right, x: 1020, y: 655) - Connect */}
63:             <g className="node-group node-03">
64:               <circle cx="991" cy="598" r="14" fill="#F5F0EA" />
65:               <text x="991" y="602" fill="#031633" fontSize="12" fontWeight="700" textAnchor="middle">03</text>
66:               <circle cx="1020" cy="655" r="43" fill="#BD5B3B" stroke="#D0C6B6" strokeWidth="2" filter="url(#badgeShadow)" />
67:               {/* Connect / Speech Bubble Variant Icon */}
68:               <g transform="translate(144, 354)">
69:                 <path d="M879.513 115.332C879.052 115.379 877.13 115.326 875.991 115.232C875.971 115.231 875.95 115.229 875.929 115.227C875.662 115.205 875.403 115.188 875.096 115.161C874.816 115.136 874.493 115.103 874.08 115.038C874.063 115.036 874.046 115.033 874.029 115.03C873.406 114.929 872.596 114.77 871.468 114.462C870.912 114.352 870.362 114.232 869.816 114.102C867.393 113.522 865.044 112.791 862.759 111.89C862.748 111.886 862.737 111.881 862.725 111.877C860.03 110.746 857.881 109.454 855.695 107.936C855.669 107.917 855.643 107.899 855.617 107.881C854.414 107.075 853.617 105.771 853.274 104.65C853.238 104.552 853.204 104.452 853.171 104.352C853.043 103.953 852.946 103.547 852.875 103.159C852.868 103.117 852.861 103.076 852.854 103.036C852.548 101.36 852.893 99.6631 853.288 98.6804C853.949 97.0406 854.608 96.1732 855.126 95.4554C856.67 93.1459 858.461 91.2458 860.242 89.3737C860.28 89.3339 860.319 89.294 860.357 89.254C862.183 87.4455 864.246 86.7678 866.239 86.1152C867.683 85.6732 869.133 85.3411 870.595 85.0737C870.873 85.0231 871.152 84.9751 871.432 84.9301C871.495 84.92 871.557 84.9102 871.619 84.9006C872.767 84.7289 873.832 84.7609 874.868 84.8238C875.681 84.841 876.436 84.8802 877.138 84.9291C878.116 84.9974 878.989 85.0862 879.694 85.1925C881.395 85.4489 883.276 85.9204 884.667 86.2851C884.891 86.3438 885.108 86.4009 885.308 86.4533C885.449 86.4818 885.592 86.5107 885.737 86.54C885.831 86.5591 885.925 86.5783 886.02 86.5978C887.004 86.8005 887.97 87.1183 888.882 87.5318C888.951 87.5832 889.02 87.6358 889.09 87.6904C889.949 88.3684 891.065 89.0408 892.568 90.3017C893.221 90.8478 893.938 91.5052 894.736 92.2732C894.89 92.4206 895.015 92.5513 895.121 92.6682C895.198 92.754 895.264 92.8324 895.323 92.9051C895.479 93.0908 895.582 93.2477 895.672 93.3901C895.728 93.4774 895.777 93.5585 895.829 93.6399C896.007 93.9168 896.267 94.1408 896.56 94.431C896.937 94.8042 897.38 95.301 897.645 96.0889C898.127 97.5791 898.333 98.5275 898.575 99.2126C898.616 99.3345 898.656 99.4482 898.696 99.554C898.83 99.9616 898.904 100.311 898.95 100.624C898.994 100.933 899.009 101.211 898.991 101.484C898.939 102.385 898.468 103.424 898.064 104.091C897.841 104.468 897.558 105.132 897.348 105.753C897.314 105.853 897.282 105.952 897.254 106.049C897.18 106.27 897.098 106.482 897.012 106.681C896.838 107.084 896.503 107.587 896.052 108.074C895.586 108.581 895.007 109.064 894.427 109.538C893.73 110.104 893.211 110.481 892.805 110.798C892.713 110.869 892.628 110.936 892.547 111.001C892.061 111.367 891.611 111.592 891.208 111.756C890.931 111.867 890.672 111.95 890.42 112.018C890.067 112.115 889.682 112.185 889.332 112.238C889.004 112.284 888.595 112.355 888.699 112.354C888.734 112.346 888.821 112.328 888.988 112.224C888.995 112.22 889.002 112.215 889.01 112.21C889.422 111.924 889.471 111.621 889.484 111.628C889.496 111.61 889.492 111.725 889.507 111.856C889.534 112.132 889.603 112.497 889.677 112.813C889.845 114.391 890.317 116.124 890.058 118.408L890.068 118.294C890.068 118.301 890.067 118.307 890.067 118.313C890.052 118.468 890.04 118.626 890.027 118.788C889.944 119.584 889.91 120.255 889.339 121.367C889.265 121.567 888.96 121.96 888.785 122.082C888.776 122.088 888.767 122.094 888.758 122.099C888.299 122.374 887.852 122.354 887.62 122.301C887.373 122.244 887.235 122.157 887.126 122.075C886.615 121.625 886.62 121.217 886.547 120.935C886.499 120.649 886.494 120.491 886.551 120.402C886.61 120.314 886.748 120.281 886.995 120.217C887.223 120.149 887.641 120.08 887.831 119.901C887.856 119.866 887.864 119.821 887.792 119.779C887.729 119.74 887.507 119.702 887.246 119.844C887.241 119.847 887.236 119.849 887.231 119.852L886.79 120.422C886.637 120.229 886.561 119.393 886.569 118.627C886.572 118.459 886.575 118.289 886.579 118.116C886.579 118.109 886.58 118.103 886.58 118.096C886.581 118.077 886.586 118.019 886.588 118C886.667 116.724 886.189 115.033 885.866 113.167C885.796 112.723 885.727 112.261 885.726 111.678C885.729 111.385 885.742 111.052 885.859 110.616C885.971 110.201 886.254 109.546 886.917 109.103C887.205 108.913 887.436 108.832 887.621 108.773C888.277 108.591 888.562 108.605 888.862 108.566C889.147 108.537 889.378 108.51 889.584 108.47C889.994 108.392 890.287 108.278 890.546 108.1C890.644 108.033 890.74 107.966 890.837 107.901C890.972 107.808 891.106 107.717 891.238 107.628C892.626 106.704 893.739 105.883 894.17 104.972C894.198 104.917 894.224 104.861 894.249 104.803C894.28 104.731 894.311 104.659 894.342 104.589C894.356 104.549 894.37 104.509 894.384 104.469C894.877 103.112 895.303 101.98 895.425 101.317C895.54 100.754 895.578 100.498 895.596 100.302C895.598 100.286 895.599 100.27 895.599 100.254C895.586 100.143 895.572 100.036 895.556 99.9324C895.532 99.7794 895.504 99.6335 895.465 99.4912C895.425 99.3448 895.367 99.1484 895.292 98.9178C894.991 97.962 894.374 96.5282 893.52 95.5042C893.431 95.3943 893.338 95.2825 893.237 95.1694C893.165 95.092 893.092 95.0133 893.019 94.9338C892.651 94.5315 892.281 94.1085 891.925 93.7085C891.13 92.8083 890.376 92.0399 889.927 91.7469C889.147 91.2248 888.298 90.6246 887.492 90.2009C886.728 89.7919 886.007 89.5393 885.575 89.5038C885.502 89.4976 885.43 89.4902 885.36 89.4815C885.264 89.4686 885.17 89.4532 885.077 89.4356C884.704 89.3648 884.326 89.2521 883.846 89.111C883.357 88.9677 882.761 88.7944 881.94 88.6068C880.989 88.3901 880.33 88.2043 879.763 88.0487C878.971 87.8321 878.367 87.673 877.448 87.6302C876.429 87.5834 875.384 87.5286 874.583 87.4413C874.218 87.4009 873.8 87.3847 873.377 87.3887C872.906 87.3928 872.429 87.4236 872.013 87.466C871.955 87.4722 871.897 87.4783 871.838 87.4841C871.808 87.4872 871.777 87.4902 871.746 87.4931C871.282 87.5365 870.885 87.528 870.534 87.5242C870.424 87.523 870.32 87.5223 870.218 87.5244C869.851 87.6012 869.485 87.6844 869.121 87.7746C869.066 87.8014 869.007 87.8305 868.946 87.8609C868.641 88.0137 868.269 88.2049 867.801 88.389C867.062 88.6812 866.398 88.859 865.714 89.0805C865.183 89.2541 864.637 89.4544 864.081 89.7787C863.704 89.9994 863.308 90.2913 862.979 90.6003C862.779 90.7876 862.605 90.9799 862.464 91.1598C862.43 91.2017 862.396 91.2429 862.363 91.2835C862.119 91.5809 861.892 91.8507 861.696 92.0551C861.553 92.2041 861.4 92.3036 861.25 92.4025C861.249 92.4028 861.248 92.4032 861.247 92.4036C861.237 92.4105 861.227 92.4174 861.217 92.4242C860.395 93.4702 859.625 94.5496 858.96 95.6567C858.911 95.7566 858.86 95.8617 858.813 95.9629C858.577 96.4603 858.378 96.9442 858.304 97.286C858.224 97.654 857.867 98.4855 857.66 99.3281C857.521 99.8778 857.451 100.427 857.471 100.84C857.481 101.082 857.411 101.288 857.352 101.509C857.298 101.713 857.255 101.929 857.31 102.149C857.317 102.179 857.327 102.21 857.338 102.241C857.346 102.267 857.355 102.292 857.365 102.318C857.392 102.393 857.424 102.468 857.458 102.541C857.513 102.661 857.573 102.777 857.627 102.889C857.677 102.993 857.725 103.235 857.808 103.459C857.859 103.598 857.92 103.728 858.004 103.841C858.063 103.885 858.123 103.922 858.189 103.955C858.213 103.97 858.239 103.985 858.264 104C858.91 104.385 859.561 104.768 860.214 105.145C860.415 105.204 860.601 105.235 860.766 105.228C860.884 105.223 860.996 105.199 861.111 105.174C861.266 105.14 861.427 105.106 861.613 105.115C861.759 105.122 861.903 105.178 861.976 105.257C862.01 105.294 862.029 105.336 862.046 105.374C862.066 105.417 862.084 105.455 862.12 105.476C862.145 105.491 862.181 105.491 862.225 105.491C862.296 105.491 862.385 105.49 862.49 105.551C862.877 105.776 863.308 106.045 863.721 106.288C864.104 106.513 864.475 106.716 864.767 106.846C864.777 106.85 864.788 106.855 864.798 106.859C864.861 106.887 864.923 106.913 864.983 106.937C865.443 107.126 866.067 107.474 866.7 107.811C867.142 108.047 867.587 108.277 867.977 108.451C868.36 108.622 868.776 108.746 869.179 108.862C869.663 109.001 870.128 109.128 870.5 109.312C870.575 109.349 870.653 109.444 870.754 109.563C870.825 109.647 870.907 109.742 871.006 109.837C871.504 109.996 872.002 110.147 872.5 110.286C872.519 110.282 872.539 110.278 872.56 110.275C872.56 110.275 872.56 110.274 872.561 110.274C873.018 110.188 873.623 110.073 874.361 110.378C874.51 110.439 874.613 110.511 874.698 110.581C874.71 110.591 874.723 110.601 874.735 110.612C874.743 110.619 874.751 110.626 874.759 110.633C874.853 110.714 874.938 110.787 875.075 110.818C875.231 110.853 875.424 110.835 875.636 110.811C875.934 110.777 876.269 110.732 876.612 110.813C876.635 110.818 876.66 110.824 876.687 110.83C876.936 110.888 877.315 110.967 877.709 111.114C878.888 111.269 880.162 110.976 882.05 112.219C882.175 112.317 882.296 112.426 882.409 112.544C882.426 112.562 882.442 112.58 882.459 112.598C883.462 113.833 883.516 114.551 883.906 115.042C883.915 115.055 883.925 115.068 883.934 115.081C884.486 115.854 885.029 116.631 885.566 117.41C886.106 118.193 886.502 119.026 886.672 119.726C886.839 120.426 886.78 120.935 886.487 121.185C886.195 121.436 885.647 121.359 885.007 120.994C884.365 120.628 883.681 120.013 883.081 119.291C882.484 118.572 881.886 117.86 881.281 117.151C881.271 117.139 881.261 117.127 881.251 117.115C880.735 116.502 880.378 115.816 880.129 115.418C880.09 115.366 880.054 115.32 880.022 115.28C879.929 115.167 879.854 115.123 879.816 115.133C879.814 115.134 879.811 115.135 879.809 115.135C879.824 115.226 879.81 115.273 879.686 115.301C879.64 115.312 879.581 115.322 879.513 115.332Z" fill="#F5F0EA" />
70:               </g>
71:             </g>
72: 
73:             {/* NODE 04 (Bottom-Left, x: 420, y: 655) - Go Deeper */}
74:             <g className="node-group node-04">
75:               <circle cx="391" cy="598" r="14" fill="#F5F0EA" />
76:               <text x="391" y="602" fill="#031633" fontSize="12" fontWeight="700" textAnchor="middle">04</text>
77:               <circle cx="420" cy="655" r="43" fill="#BD5B3B" stroke="#D0C6B6" strokeWidth="2" filter="url(#badgeShadow)" />
78:               {/* Figure / Meditation Icon */}
79:               <g transform="translate(0, 0)">
80:                 <path d="M411.804 632.581C412.083 632.837 412.219 633.467 412.293 633.807C412.295 633.813 412.296 633.82 412.298 633.826C412.316 633.908 412.339 633.983 412.366 634.069C412.432 634.277 412.518 634.556 412.615 635.158C412.679 635.319 412.741 635.48 412.803 635.641C413.208 636.707 413.593 637.697 414.066 638.689C414.073 638.705 414.08 638.72 414.088 638.735C414.334 639.268 414.63 639.747 414.988 640.173C415.002 640.185 415.017 640.197 415.032 640.209C415.316 640.446 415.699 640.684 415.918 640.89C416.196 641.154 416.408 641.343 416.588 641.502C417.147 641.839 417.796 642.127 418.546 642.487C418.554 642.491 418.562 642.495 418.57 642.499C419.103 642.78 419.741 642.96 420.413 643.029C420.83 643.072 421.26 643.073 421.692 643.036C422.09 643.001 422.489 642.937 422.884 642.845C423.107 642.758 423.314 642.658 423.503 642.562C423.769 642.427 423.999 642.297 424.195 642.213C424.422 642.116 424.67 642.032 424.912 641.953C424.93 641.947 424.948 641.941 424.966 641.935C425.095 641.903 425.209 641.868 425.312 641.818C425.346 641.801 425.379 641.783 425.409 641.764C425.533 641.613 425.649 641.412 425.757 641.16C425.779 641.152 425.803 641.143 425.827 641.134C426.127 641.02 426.27 640.709 426.463 640.153C426.548 639.909 426.643 639.615 426.777 639.258C426.864 639.027 426.985 638.93 427.083 638.852C427.113 638.829 427.14 638.807 427.164 638.784C427.246 638.705 427.229 638.585 427.211 638.44C427.187 638.253 427.162 638.022 427.355 637.799C427.401 637.746 427.443 637.696 427.482 637.647L427.416 637.846C427.424 637.833 427.432 637.82 427.439 637.807C427.765 637.238 427.648 636.904 427.557 636.653C427.528 636.573 427.501 636.498 427.492 636.427C427.463 636.195 427.591 635.895 427.727 635.671C427.836 635.493 427.82 635.099 427.766 634.796C427.745 634.681 427.766 634.532 427.79 634.355C427.814 634.172 427.842 633.959 427.832 633.726C427.807 633.135 427.8 632.817 427.795 632.561C427.794 632.49 427.793 632.424 427.792 632.356L427.786 632.435C427.786 632.433 427.786 632.432 427.786 632.431C427.785 632.429 427.785 632.428 427.785 632.426C427.77 632.227 427.78 631.984 427.809 631.744C427.843 631.454 427.904 631.164 427.943 630.943C428.176 630.367 428.434 629.771 428.544 629.145C428.604 628.825 428.651 628.494 428.641 628.251C428.634 628.007 428.592 627.875 428.622 627.856C428.651 627.838 428.754 627.924 428.945 628.098C429.132 628.273 429.394 628.533 429.608 628.846C430.034 629.476 430.405 630.178 430.665 630.895C430.868 631.46 430.997 632.035 431.004 632.589C431.004 632.593 431.004 632.596 431.004 632.599C431.002 632.615 431 632.663 430.998 632.679C430.989 632.961 430.975 633.244 430.956 633.528C430.917 634.095 430.863 634.672 430.785 635.255C430.777 635.315 430.769 635.375 430.76 635.436C430.803 635.941 430.822 636.455 430.797 636.812C430.777 637.107 430.686 637.309 430.608 637.48C430.553 637.598 430.505 637.702 430.487 637.812C430.477 637.872 430.466 637.954 430.452 638.053C430.435 638.178 430.413 638.328 430.383 638.494C430.381 638.509 430.378 638.524 430.375 638.54C430.359 638.605 430.297 638.793 430.271 638.854C430.173 639.12 430.047 639.46 429.865 639.789C429.744 640.008 429.569 640.265 429.396 640.523C429.151 640.891 428.905 641.254 428.855 641.47C428.77 641.849 428.535 642.264 428.276 642.626C428.031 642.975 427.763 643.266 427.66 643.485C427.535 643.748 427.33 643.91 427.005 644.099C426.777 644.228 426.488 644.372 426.095 644.522C426.07 644.532 426.046 644.54 426.021 644.549C425.999 644.556 425.977 644.563 425.955 644.57C425.669 644.658 425.443 644.688 425.249 644.712C424.937 644.748 424.706 644.769 424.402 644.954C424.063 645.159 423.681 645.318 423.362 645.351C423.216 645.365 423.053 645.4 422.883 645.433C422.657 645.477 422.416 645.517 422.191 645.505C422.006 645.496 421.848 645.431 421.711 645.372C421.668 645.353 421.627 645.335 421.587 645.32C421.444 645.33 421.3 645.339 421.156 645.345C421.133 645.359 421.108 645.373 421.083 645.389C420.955 645.464 420.794 645.555 420.59 645.595C420.267 645.659 419.983 645.595 419.69 645.515C419.461 645.452 419.227 645.379 418.948 645.337C418.758 645.308 418.536 645.289 418.314 645.26C418.028 645.222 417.74 645.164 417.536 645.072C417.53 645.068 417.523 645.065 417.517 645.062C417.501 645.054 417.486 645.046 417.471 645.037C417.414 645.002 417.378 644.935 417.342 644.868C417.342 644.867 417.342 644.867 417.341 644.867C417.339 644.862 417.336 644.857 417.334 644.853C416.905 644.728 416.441 644.601 415.962 644.443C415.917 644.438 415.872 644.432 415.827 644.426C415.606 644.395 415.388 644.357 415.225 644.368C415.048 644.382 414.672 644.25 414.277 644.071C414.017 643.955 413.752 643.82 413.526 643.713C413.394 643.651 413.314 643.527 413.238 643.399C413.164 643.279 413.096 643.158 412.978 643.07C412.92 643.027 412.849 642.99 412.772 642.948C412.704 642.911 412.635 642.873 412.567 642.824C412.504 642.778 412.402 642.64 412.278 642.456C412.204 642.345 412.119 642.214 412.033 642.082C411.742 641.783 411.472 641.465 411.225 641.135C411.143 641.088 411.057 641.054 410.965 641.041C410.899 641.032 410.828 641.032 410.756 641.033C410.657 641.034 410.555 641.033 410.457 641.004C410.393 640.985 410.344 640.947 410.328 640.904C410.326 640.897 410.324 640.89 410.324 640.882C410.324 640.864 410.33 640.845 410.338 640.827C410.339 640.824 410.341 640.82 410.342 640.817C410.352 640.794 410.361 640.773 410.353 640.758C410.346 640.748 410.328 640.745 410.305 640.74C410.268 640.733 410.221 640.723 410.196 640.681C410.103 640.525 410.013 640.338 409.929 640.154C409.835 639.949 409.746 639.747 409.659 639.594C409.561 639.424 409.488 639.148 409.423 638.873C409.377 638.681 409.333 638.49 409.283 638.334C409.233 638.18 409.142 638.039 409.054 637.9C408.949 637.735 408.849 637.575 408.837 637.413C408.834 637.38 408.874 637.322 408.925 637.25C408.961 637.199 409.003 637.141 409.038 637.08C408.968 636.896 408.902 636.712 408.84 636.53C408.83 636.527 408.82 636.523 408.81 636.519C408.809 636.519 408.809 636.519 408.809 636.519C408.579 636.433 408.264 636.314 408.307 635.978C408.317 635.892 408.369 635.823 408.415 635.761C408.461 635.7 408.502 635.645 408.494 635.589C408.486 635.524 408.425 635.466 408.359 635.404C408.266 635.317 408.161 635.216 408.178 635.078C408.179 635.068 408.181 635.058 408.182 635.047C408.193 634.945 408.21 634.795 408.29 634.626C408.194 634.237 408.104 633.843 408.019 633.456C407.876 632.802 407.745 632.156 407.61 631.506C407.544 631.186 407.611 630.84 407.805 630.533C408 630.227 408.301 629.981 408.658 629.856C409.015 629.73 409.404 629.733 409.747 629.854C410.091 629.975 410.36 630.209 410.507 630.506C410.743 630.984 410.977 631.461 411.205 631.94C411.221 631.964 411.237 631.988 411.253 632.012C411.369 632.188 411.532 632.337 411.693 632.48C411.73 632.512 411.768 632.548 411.804 632.581Z
81: " fill="#F5F0EA" />
82:               </g>
83:             </g>
84:           </svg>